<svg width="24" height="24" viewBox="0 0 24 24" fill="none" xmlns="http://www.w3.org/2000/svg">
<path d="M21.975 2.52233H19.125V0.125H16.75V2.52233H7.25V0.125H4.875V2.52233H2.06347C1.0142 2.52233 0.163475 3.37305 0.163475 4.42233V21.975C0.163475 23.0243 1.0142 23.875 2.06347 23.875H21.975C23.0243 23.875 23.875 23.0243 23.875 21.975V4.42233C23.875 3.37305 23.0243 2.52233 21.975 2.52233ZM21.5 21.5H2.5V9.625H21.5V21.5ZM21.5 7.25H2.5V4.875H21.5V7.25Z" fill="white"/>
<path d="M13.425 12H11.05V14.375H13.425V12Z" fill="white"/>
<path d="M18.175 12H15.8V14.375H18.175V12Z" fill="white"/>
<path d="M13.425 16.75H11.05V19.125H13.425V16.75Z" fill="white"/>
<path d="M8.675 16.75H6.3V19.125H8.675V16.75Z" fill="white"/>
</svg>
