<svg width="24" height="24" viewBox="0 0 24 24" fill="none" xmlns="http://www.w3.org/2000/svg">
<path d="M20 2.5L19.875 2.375C18.875 1.375 17.375 0.75 16 0.75H8C6.625 0.75 5.25 1.375 4.125 2.375L4 2.5L1.875 5.5C1.125 6.625 0.75 7.875 0.75 9.125V18.25C0.75 21 3 23.25 5.75 23.25H18.25C21 23.25 23.25 21 23.25 18.25V9.125C23.25 7.875 22.875 6.625 22.125 5.5L20 2.5ZM3.875 7L5.875 4.125C6.5 3.5 7.25 3.25 8 3.25H15.875C16.625 3.25 17.375 3.5 18 4.125L20.125 7H14.875H9.125H3.875ZM13.625 9.5V12.625L12.5 12.125C12.375 12 12.125 12 12 12C11.875 12 11.625 12 11.5 12.125L10.375 12.625V9.5H13.625ZM20.75 18.25C20.75 19.625 19.625 20.75 18.25 20.75H5.75C4.375 20.75 3.25 19.625 3.25 18.25V9.5H7.875V14.5C7.875 14.875 8.125 15.375 8.5 15.5C8.875 15.75 9.25 15.75 9.625 15.625L12 14.625L14.375 15.625C14.5 15.75 14.75 15.75 14.875 15.75C15.125 15.75 15.375 15.625 15.5 15.5C15.875 15.25 16.125 14.875 16.125 14.5V9.5H20.75V18.25Z" fill="white"/>
</svg>
